Coordinates
version=1
nRows=41
nColumns=38
inDegrees=no

Units are S.I. units (second, meters, Newtons, ...)
If the header above contains a line with 'inDegrees', this indicates whether rotational values are in degrees (yes) or radians (no).

endheader
time	pelvis_tilt	pelvis_list	pelvis_rotation	pelvis_tx	pelvis_ty	pelvis_tz	hip_flexion_r	hip_adduction_r	hip_rotation_r	knee_angle_r	ankle_angle_r	subtalar_angle_r	mtp_angle_r	hip_flexion_l	hip_adduction_l	hip_rotation_l	knee_angle_l	ankle_angle_l	subtalar_angle_l	mtp_angle_l	lumbar_extension	lumbar_bending	lumbar_rotation	arm_flex_r	arm_add_r	arm_rot_r	elbow_flex_r	pro_sup_r	wrist_flex_r	wrist_dev_r	arm_flex_l	arm_add_l	arm_rot_l	elbow_flex_l	pro_sup_l	wrist_flex_l	wrist_dev_l
1.04	0.844859	1.51447	0.754383	0.72127	0.683202	1.02649	0.346459	-0.0208828	-0.253031	0	-0.139233	0	0	-0.267189	-0.0588258	-0.389365	0.137364	-0.0938609	0	0	-0.187935	0.0705998	-0.101556	-0.15264	-0.180162	0.107049	0.40675	1.5708	0	0	0.0380822	-0.387666	0.0897822	1.24047	1.39557	0	0
1.05	0.952067	1.51858	0.656139	0.720625	0.69627	1.02506	0.35389	-0.0140048	-0.248319	0	-0.139568	0	0	-0.277362	-0.0615462	-0.404457	0.150883	-0.0880085	0	0	-0.196307	0.0753011	-0.105723	-0.152331	-0.182692	0.120711	0.394311	1.5708	0	0	0.0443754	-0.390326	0.0978315	1.24296	1.40017	0	0
1.06	0.967642	1.51607	0.63794	0.722882	0.709553	1.02201	0.34654	-0.0112347	-0.241075	0	-0.144234	0	0	-0.285337	-0.073831	-0.398256	0.172567	-0.0870836	0	0	-0.200271	0.0796011	-0.100521	-0.148525	-0.179906	0.119225	0.387818	1.5708	0	0	0.0516345	-0.392426	0.10301	1.24393	1.40368	0	0
1.07	1.09993	1.51506	0.508483	0.723809	0.723021	1.02048	0.344568	-0.00239998	-0.230103	0	-0.153984	0	0	-0.295893	-0.0851953	-0.403185	0.193039	-0.0859666	0	0	-0.209123	0.0878203	-0.098333	-0.145442	-0.17906	0.118425	0.377922	1.5708	0	0	0.0581626	-0.393263	0.110677	1.24222	1.40885	0	0
1.08	1.25567	1.51234	0.355304	0.724776	0.736858	1.01937	0.339994	0.00841094	-0.21746	0	-0.168607	0	0	-0.307274	-0.0982236	-0.410013	0.215516	-0.08592	0	0	-0.218806	0.097624	-0.0958875	-0.14199	-0.17866	0.118343	0.367959	1.5708	0	0	0.0629984	-0.393472	0.11842	1.23885	1.41497	0	0
1.09	1.47651	1.50641	0.136842	0.725648	0.75106	1.01897	0.327466	0.022787	-0.20768	0	-0.241293	0	0	-0.321369	-0.116604	-0.430541	0.246576	-0.0968527	0	0	-0.233898	0.11057	-0.0927524	-0.135795	-0.179381	0.123974	0.35559	1.5708	0	0	0.0665449	-0.39163	0.123454	1.23459	1.43159	0	0
1.1	1.57465	1.49979	0.0416046	0.726403	0.765614	1.01847	0.326596	0.0328667	-0.208425	0.0285422	-0.258412	0	0	-0.330563	-0.129881	-0.432672	0.270151	-0.105392	0	0	-0.240639	0.122087	-0.0921068	-0.133358	-0.181446	0.130675	0.348775	1.5708	0	0	0.0658173	-0.388643	0.127657	1.22758	1.43825	0	0
1.11	1.63571	1.49247	-0.0169767	0.727161	0.780314	1.01827	0.329692	0.0413984	-0.211683	0.0663259	-0.266632	0	0	-0.335975	-0.143552	-0.433148	0.297636	-0.111811	0	0	-0.245046	0.133838	-0.0904494	-0.131968	-0.181331	0.121564	0.343167	1.5708	0	0	0.0647103	-0.385276	0.134356	1.21742	1.44187	0	0
1.12	1.67094	1.48455	-0.0496501	0.727886	0.795157	1.01838	0.335618	0.0485158	-0.222938	0.11097	-0.277885	0	0	-0.337677	-0.157772	-0.429835	0.328747	-0.134258	0	0	-0.245976	0.145785	-0.0928186	-0.12131	-0.230323	0.410469	0.35481	1.27715	0	0	0.0577436	-0.379164	0.133049	1.20557	1.45114	0	0
1.13	1.67334	1.47709	-0.0495435	0.728758	0.810071	1.01874	0.341391	0.0547065	-0.231257	0.153672	-0.262548	0	0	-0.333909	-0.17123	-0.41852	0.363552	-0.163152	0	0	-0.245682	0.157212	-0.0882429	-0.130251	-0.185249	0.12689	0.336237	1.5708	0	0	0.056488	-0.372436	0.14124	1.18907	1.45697	0	0
1.14	1.66459	1.46923	-0.0381462	0.729658	0.824983	1.01935	0.343812	0.0616441	-0.231035	0.18789	-0.257524	0	0	-0.325591	-0.185179	-0.4002	0.404013	-0.176641	0	0	-0.242487	0.168422	-0.0872425	-0.130295	-0.188573	0.138119	0.336062	1.5708	0	0	0.0507917	-0.365265	0.145488	1.17165	1.45951	0	0
1.15	1.63894	1.46228	-0.0090838	0.730673	0.839876	1.02008	0.347299	0.0679013	-0.227451	0.22275	-0.221116	0	0	-0.310896	-0.198431	-0.370962	0.449314	-0.217329	0	0	-0.236356	0.178103	-0.0865011	-0.131467	-0.188485	0.131149	0.337472	1.5708	0	0	0.044824	-0.358371	0.151505	1.15192	1.45937	0	0
1.16	1.59894	1.45602	0.0353773	0.731804	0.854558	1.02083	0.350472	0.0747618	-0.219049	0.252166	-0.197329	0	0	-0.289717	-0.2106	-0.328229	0.498538	-0.2486	0	0	-0.227711	0.186324	-0.0874076	-0.132034	-0.189391	0.134728	0.340101	1.5708	0	0	0.0379589	-0.352185	0.157681	1.13124	1.45697	0	0
1.17	1.54934	1.45096	0.0910494	0.732917	0.868976	1.02144	0.353764	0.0807254	-0.212357	0.277582	-0.173911	0	0	-0.262411	-0.220402	-0.275429	0.551223	-0.27997	0	0	-0.217008	0.192483	-0.0902796	-0.132038	-0.189931	0.140237	0.343859	1.5708	0	0	0.0306553	-0.347047	0.164724	1.11013	1.45239	0	0
1.18	1.49443	1.44717	0.154442	0.733848	0.883125	1.02183	0.356774	0.0842212	-0.212465	0.299331	-0.151008	0	0	-0.229527	-0.227416	-0.218294	0.608282	-0.311998	0	0	-0.204715	0.196466	-0.0957967	-0.131958	-0.190671	0.149202	0.349675	1.5708	0	0	0.023204	-0.343095	0.172913	1.08901	1.44575	0	0
1.19	1.44681	1.44392	0.212248	0.734599	0.897012	1.02205	0.356335	0.0863624	-0.216725	0.314149	-0.134785	0	0	-0.19388	-0.232155	-0.161049	0.668679	-0.34006	0	0	-0.193154	0.199147	-0.102828	-0.132272	-0.19309	0.166499	0.359425	1.5708	0	0	0.0154799	-0.338859	0.179683	1.06869	1.43847	0	0
1.2	1.40352	1.44058	0.267468	0.735077	0.910624	1.02208	0.353351	0.0875246	-0.223948	0.324173	-0.11566	0	0	-0.155522	-0.235507	-0.106092	0.730898	-0.373616	0	0	-0.180799	0.20137	-0.11209	-0.123523	-0.236351	0.406323	0.386579	1.29433	0	0	0.00842117	-0.337147	0.191553	1.04817	1.42333	0	0
1.21	1.37075	1.43739	0.313243	0.735369	0.923965	1.02217	0.34669	0.0885561	-0.231462	0.328801	-0.095631	0	0	-0.11673	-0.237614	-0.0552009	0.791302	-0.415486	0	0	-0.172356	0.203792	-0.114093	-0.138066	-0.189167	0.134077	0.388754	1.5708	0	0	0.0110903	-0.339738	0.223021	1.02541	1.39521	0	0
1.22	1.36158	1.43442	0.335547	0.735397	0.937028	1.02253	0.335382	0.0904482	-0.238804	0.329188	-0.0859062	0	0	-0.080585	-0.239333	-0.0109187	0.84844	-0.445993	0	0	-0.167025	0.206431	-0.119006	-0.138568	-0.192512	0.142422	0.405763	1.5708	0	0	0.00750237	-0.33204	0.22857	1.00322	1.39454	0	0
1.23	1.37212	1.43294	0.337441	0.735318	0.94991	1.02328	0.321096	0.0920095	-0.247287	0.329751	-0.0746677	0	0	-0.0482481	-0.239781	0.0262265	0.900684	-0.466729	0	0	-0.165907	0.20834	-0.120277	-0.139464	-0.193146	0.132488	0.424375	1.5708	0	0	0.00928234	-0.328353	0.247293	0.979193	1.38285	0	0
1.24	1.39086	1.43289	0.329838	0.735197	0.962653	1.02438	0.305474	0.0931024	-0.256069	0.330596	-0.0581538	0	0	-0.0188694	-0.238486	0.0573131	0.948541	-0.460267	0	0	-0.166955	0.209281	-0.117873	-0.141618	-0.194473	0.119607	0.445955	1.5708	0	0	0.0186931	-0.333415	0.292626	0.952895	1.34618	0	0
1.25	1.42027	1.43432	0.3097	0.735207	0.975366	1.02592	0.28706	0.0944796	-0.262195	0.328709	-0.0501434	0	0	0.00647185	-0.236168	0.0805202	0.990923	-0.432118	0	0	-0.170911	0.208424	-0.114231	-0.139834	-0.196235	0.113344	0.463519	1.5708	0	0	0.0228532	-0.328716	0.313144	0.926419	1.33899	0	0
1.26	1.45802	1.437	0.279754	0.735326	0.988056	1.02783	0.266575	0.0954992	-0.267319	0.32517	-0.0444609	0	0	0.0289417	-0.232931	0.0964868	1.02891	-0.391304	0	0	-0.176776	0.206033	-0.109662	-0.136304	-0.198989	0.112274	0.480202	1.5708	0	0	0.025613	-0.323202	0.329646	0.900068	1.33845	0	0
1.27	1.50287	1.44063	0.240918	0.735581	1.00077	1.03005	0.243995	0.0963087	-0.271252	0.31968	-0.0413607	0	0	0.0489541	-0.229194	0.105347	1.0616	-0.356389	0	0	-0.18387	0.202011	-0.104526	-0.129971	-0.203543	0.122013	0.493985	1.5708	0	0	0.0259141	-0.31719	0.341255	0.874536	1.34401	0	0
1.28	1.55718	1.44461	0.189934	0.735988	1.01368	1.03252	0.218742	0.0976359	-0.273266	0.311863	-0.0388571	0	0	0.0656219	-0.22543	0.107577	1.08797	-0.313581	0	0	-0.191162	0.196743	-0.0993534	-0.117152	-0.234578	0.237706	0.513507	1.45618	0	0	0.0227792	-0.311863	0.349814	0.850623	1.35101	0	0
1.29	1.61173	1.44948	0.137977	0.736396	1.02656	1.03516	0.192593	0.0977225	-0.275591	0.302298	-0.0377006	0	0	0.0815966	-0.221041	0.105017	1.10751	-0.275106	0	0	-0.198907	0.189941	-0.0914997	-0.117085	-0.213334	0.137343	0.522767	1.5708	0	0	0.0197724	-0.3049	0.354851	0.826707	1.36363	0	0
1.3	1.65861	1.45477	0.0928294	0.736769	1.03939	1.03777	0.167492	0.0967342	-0.278716	0.29215	-0.0373613	0	0	0.0981858	-0.215987	0.0994742	1.12031	-0.248502	0	0	-0.204119	0.181751	-0.0855148	-0.110644	-0.215713	0.135262	0.535872	1.5708	0	0	0.0142405	-0.299249	0.359088	0.804208	1.3725	0	0
1.31	1.7118	1.45959	0.0406216	0.737217	1.05223	1.04046	0.141239	0.0965178	-0.279772	0.279283	-0.0388163	0	0	0.113302	-0.212136	0.0908144	1.12654	-0.217661	0	0	-0.209288	0.173284	-0.0800965	-0.103678	-0.220218	0.14101	0.549437	1.5708	0	0	0.00638524	-0.294241	0.359897	0.78383	1.38444	0	0
1.32	1.76621	1.46456	-0.0131841	0.737625	1.06508	1.04316	0.115154	0.0958894	-0.280811	0.26533	-0.0421406	0	0	0.128089	-0.209333	0.0773598	1.12655	-0.191132	0	0	-0.213732	0.164104	-0.0753218	-0.0965015	-0.22507	0.148332	0.562572	1.5708	0	0	-0.00293907	-0.289859	0.358882	0.764799	1.39705	0	0
1.33	1.82556	1.46974	-0.0727519	0.737961	1.07788	1.04586	0.089245	0.0944929	-0.282116	0.251145	-0.0469909	0	0	0.142232	-0.207636	0.0574263	1.12032	-0.169589	0	0	-0.218247	0.154236	-0.0701993	-0.0896631	-0.230091	0.155113	0.576117	1.5708	0	0	-0.0129312	-0.285848	0.356869	0.747047	1.40812	0	0
1.34	1.89738	1.47445	-0.146117	0.738311	1.0906	1.04858	0.0621798	0.0932652	-0.279736	0.235552	-0.0528026	0	0	0.154585	-0.208366	0.0296632	1.10859	-0.151847	0	0	-0.223982	0.144235	-0.0638957	-0.0835233	-0.234997	0.158674	0.591334	1.5708	0	0	-0.0230184	-0.281974	0.354091	0.730475	1.41483	0	0
1.35	1.97774	1.47792	-0.228651	0.73867	1.10338	1.05128	0.0342248	0.0925573	-0.27778	0.218736	-0.0597837	0	0	0.165713	-0.21246	-0.00638092	1.09237	-0.137195	0	0	-0.230076	0.134834	-0.05702	-0.0784861	-0.240086	0.160248	0.608643	1.5708	0	0	-0.0331701	-0.278523	0.351837	0.714622	1.4176	0	0
1.36	2.08874	1.47866	-0.343494	0.73906	1.11626	1.05411	0.00271055	0.0928362	-0.277852	0.200861	-0.0738952	0	0	0.17172	-0.220653	-0.0534798	1.07138	-0.123204	0	0	-0.239573	0.126553	-0.0490876	-0.0720932	-0.25151	0.180299	0.627955	1.5708	0	0	-0.0427749	-0.277956	0.357288	0.701129	1.4079	0	0
1.37	2.18221	1.47873	-0.441244	0.73931	1.12914	1.05668	-0.0257401	0.0922745	-0.28222	0.186335	-0.0803903	0	0	0.178618	-0.23263	-0.113197	1.04681	-0.117934	0	0	-0.247256	0.118843	-0.0394246	-0.0704386	-0.252279	0.161174	0.6479	1.5708	0	0	-0.0528405	-0.273593	0.354164	0.686184	1.40367	0	0
1.38	2.26709	1.47835	-0.529817	0.739386	1.14182	1.05905	-0.0528038	0.0912365	-0.287457	0.172432	-0.0897049	0	0	0.184745	-0.243433	-0.171255	1.0175	-0.114206	0	0	-0.254573	0.111657	-0.0307261	-0.0681202	-0.25591	0.150368	0.669036	1.5708	0	0	-0.062955	-0.268175	0.348546	0.671381	1.38821	0	0
1.39	2.33097	1.47905	-0.596775	0.739346	1.15432	1.06112	-0.0764841	0.0894356	-0.292772	0.159574	-0.0997756	0	0	0.191776	-0.249319	-0.21849	0.983445	-0.111446	0	0	-0.259295	0.104235	-0.0232018	-0.0649475	-0.259448	0.141111	0.688646	1.5708	0	0	-0.0735573	-0.261663	0.339126	0.656478	1.35941	0	0
1.4	2.39358	1.47998	-0.663292	0.739206	1.16661	1.06301	-0.0986495	0.0866219	-0.298526	0.148229	-0.110576	0	0	0.19733	-0.251088	-0.258405	0.944495	-0.109677	0	0	-0.264167	0.0965957	-0.0150568	-0.0613379	-0.263181	0.131235	0.708398	1.5708	0	0	-0.083096	-0.256051	0.331587	0.642383	1.32379	0	0
1.41	2.45755	1.48085	-0.731584	0.738984	1.17874	1.06466	-0.119659	0.0829211	-0.307166	0.138474	-0.126871	0	0	0.201453	-0.250275	-0.294654	0.901173	-0.111501	0	0	-0.269229	0.0890474	-0.00549666	-0.0593123	-0.265612	0.114855	0.7299	1.5708	0	0	-0.0838989	-0.266179	0.381989	0.631669	1.23337	0	0
1.42	2.51285	1.48216	-0.790694	0.738623	1.19088	1.06599	-0.13969	0.0792509	-0.311619	0.128437	-0.134599	0	0	0.20566	-0.24759	-0.328662	0.854037	-0.11388	0	0	-0.273156	0.0814863	0.00205618	-0.0553779	-0.269197	0.10471	0.749367	1.5708	0	0	-0.0939762	-0.260105	0.36833	0.621181	1.21231	0	0
1.43	2.56267	1.48403	-0.843941	0.738149	1.20302	1.06696	-0.158745	0.075376	-0.313871	0.118305	-0.140322	0	0	0.209784	-0.242697	-0.359624	0.803003	-0.1167	0	0	-0.275804	0.0739371	0.00839533	-0.0503854	-0.274276	0.100059	0.767399	1.5708	0	0	-0.104459	-0.254387	0.353738	0.612286	1.1986	0	0
1.44	2.60327	1.48692	-0.886845	0.737604	1.21524	1.0675	-0.175834	0.0714712	-0.31782	0.109106	-0.143972	0	0	0.214783	-0.234749	-0.383751	0.747759	-0.119197	0	0	-0.276431	0.0665315	0.0144652	-0.0473345	-0.275922	0.0861581	0.785606	1.5708	0	0	-0.113295	-0.251798	0.349227	0.604483	1.18413	0	0
